<?xml version="1.0" standalone="no"?>
<!DOCTYPE svg PUBLIC "-//W3C//DTD SVG 20010904//EN"
 "http://www.w3.org/TR/2001/REC-SVG-20010904/DTD/svg10.dtd">
<svg version="1.0" xmlns="http://www.w3.org/2000/svg"
 width="200.000000pt" height="200.000000pt" viewBox="0 0 200.000000 200.000000"
 preserveAspectRatio="xMidYMid meet">
<metadata>
Created by potrace 1.14, written by Peter Selinger 2001-2017
</metadata>
<g transform="translate(0.000000,200.000000) scale(0.100000,-0.100000)"
fill="#000000" stroke="none">
<path d="M832 1630 c-203 -54 -377 -213 -447 -409 -8 -23 -10 -41 -5 -41 6 0
10 6 10 14 0 7 19 51 42 97 104 209 333 349 568 349 235 0 464 -140 568 -349
23 -46 42 -90 42 -97 0 -8 4 -14 10 -14 12 0 -12 67 -52 143 -46 87 -164 203
-255 250 -146 76 -326 97 -481 57z"/>
<path d="M905 1590 c-207 -38 -388 -181 -457 -362 -27 -71 -14 -58 27 27 43
90 137 194 218 243 99 60 188 84 307 84 119 0 208 -24 307 -84 81 -49 175
-153 218 -243 41 -85 54 -98 27 -27 -39 102 -126 205 -232 276 -105 70 -291
108 -415 86z"/>
<path d="M943 1490 c0 -25 2 -35 4 -22 2 12 2 32 0 45 -2 12 -4 2 -4 -23z"/>
<path d="M973 1490 c0 -25 2 -35 4 -22 2 12 2 32 0 45 -2 12 -4 2 -4 -23z"/>
<path d="M1005 1429 c-33 -3 -50 -6 -37 -7 23 -2 62 -34 62 -52 0 -5 -11 -10
-25 -10 -14 0 -25 -4 -25 -10 0 -5 -4 -10 -10 -10 -5 0 -10 4 -10 9 0 6 -12
22 -26 38 -23 25 -24 28 -7 34 16 7 16 8 -3 8 -24 1 -64 -38 -64 -61 0 -9 -6
-18 -12 -21 -9 -3 -5 -11 11 -26 21 -18 36 -21 116 -21 76 0 95 3 108 18 21
23 21 29 0 35 -17 4 -17 5 0 6 26 2 21 31 -5 32 -13 0 -17 3 -10 6 13 5 17 30
5 35 -5 2 -35 1 -68 -3z m65 -9 c0 -5 -5 -10 -11 -10 -5 0 -7 5 -4 10 3 6 8
10 11 10 2 0 4 -4 4 -10z m-30 -10 c0 -5 -2 -10 -4 -10 -3 0 -8 5 -11 10 -3 6
-1 10 4 10 6 0 11 -4 11 -10z m-120 -20 c8 -16 8 -20 -4 -20 -10 0 -13 6 -10
18 4 11 -1 8 -15 -8 -22 -27 -28 -21 -11 11 14 24 27 24 40 -1z m140 -21 c0
-5 -4 -9 -10 -9 -5 0 -10 7 -10 16 0 8 5 12 10 9 6 -3 10 -10 10 -16z m15 -49
c-3 -6 -48 -10 -100 -10 -52 0 -97 4 -100 10 -4 6 32 10 100 10 68 0 104 -4
100 -10z"/>
<path d="M532 1058 c-7 -7 -12 -44 -12 -95 0 -72 2 -84 20 -93 26 -14 60 3 60
30 0 26 -16 26 -23 -1 -10 -36 -42 -20 -45 24 -3 36 -3 37 32 37 36 0 36 0 36
43 0 45 -13 67 -40 67 -9 0 -21 -5 -28 -12z m48 -43 c0 -31 -3 -35 -25 -35
-21 0 -25 5 -25 28 0 33 7 42 32 42 14 0 18 -8 18 -35z"/>
<path d="M722 1058 c-7 -7 -12 -44 -12 -95 0 -78 2 -84 23 -92 29 -11 57 4 56
32 l0 22 -10 -23 c-5 -15 -16 -22 -26 -20 -15 3 -18 16 -21 86 -3 82 -2 83 20
80 14 -2 25 -12 29 -28 l7 -25 1 26 c1 28 -15 49 -39 49 -9 0 -21 -5 -28 -12z"/>
<path d="M851 1056 c-8 -9 -11 -44 -9 -96 3 -76 5 -83 26 -91 17 -6 28 -3 43
12 18 18 21 31 17 96 -3 75 -13 93 -49 93 -9 0 -22 -6 -28 -14z m57 -89 c2
-63 0 -78 -13 -83 -29 -12 -45 15 -45 76 0 74 7 92 34 88 19 -3 21 -10 24 -81z"/>
<path d="M1005 1060 c-4 -6 -11 -8 -16 -5 -5 4 -8 -33 -7 -92 l1 -98 6 80 c3
44 10 86 14 93 12 19 27 14 27 -8 0 -11 5 -20 10 -20 14 0 13 33 -2 48 -15 15
-25 15 -33 2z"/>
<path d="M1105 1060 c-3 -6 -11 -8 -16 -5 -5 4 -9 -33 -9 -89 0 -120 18 -128
22 -9 3 89 18 118 38 71 9 -22 10 -21 7 7 -2 30 -29 47 -42 25z"/>
<path d="M1402 1058 c-7 -7 -12 -44 -12 -95 0 -78 2 -84 23 -92 24 -9 48 -4
59 13 4 6 8 43 8 83 0 52 -4 76 -16 87 -18 19 -45 21 -62 4z m53 -93 c0 -73
-2 -80 -20 -80 -18 0 -20 8 -23 83 -3 82 -2 83 20 80 22 -3 23 -7 23 -83z"/>
<path d="M1555 1060 c-4 -6 -11 -8 -16 -5 -5 4 -8 -34 -7 -92 l1 -98 6 80 c4
44 10 86 14 93 12 19 27 14 27 -8 0 -11 5 -20 10 -20 14 0 13 33 -2 48 -15 15
-25 15 -33 2z"/>
<path d="M420 965 l0 -95 38 1 c30 2 32 3 10 6 l-28 4 0 90 c0 53 -4 89 -10
89 -6 0 -10 -38 -10 -95z"/>
<path d="M1194 965 c0 -55 1 -76 3 -47 2 29 2 74 0 100 -2 26 -3 2 -3 -53z"/>
<path d="M1260 965 l0 -96 38 3 37 3 0 90 0 90 -37 3 -38 3 0 -96z m58 73 c7
-7 12 -39 12 -75 0 -51 -3 -64 -19 -73 -11 -5 -22 -10 -25 -10 -3 0 -6 38 -6
85 0 86 8 103 38 73z"/>
<path d="M400 744 c0 -29 78 -142 140 -204 252 -253 663 -255 916 -5 65 64
154 198 141 211 -3 3 -20 -23 -38 -58 -47 -88 -164 -203 -256 -251 -256 -134
-551 -90 -753 113 -45 44 -89 100 -108 138 -30 57 -42 72 -42 56z"/>
<path d="M464 735 c12 -32 86 -131 123 -166 64 -61 144 -108 228 -136 66 -21
99 -26 185 -26 167 0 300 53 418 167 44 42 128 163 120 171 -3 3 -21 -21 -41
-53 -76 -124 -224 -229 -367 -263 -70 -16 -190 -16 -260 0 -143 34 -290 139
-367 262 -35 57 -51 75 -39 44z"/>
<path d="M738 700 c19 -22 14 -48 -10 -53 -20 -4 -19 -4 5 -6 22 -1 27 3 27
23 0 13 -8 30 -17 37 -15 11 -16 11 -5 -1z"/>
<path d="M803 703 c-19 -7 -16 -37 7 -66 11 -14 20 -30 20 -36 0 -17 -28 -13
-33 4 -4 11 -4 10 -3 -2 2 -24 40 -23 44 0 2 11 -6 29 -18 42 -15 16 -20 30
-16 42 7 17 8 17 22 -1 8 -11 14 -15 14 -9 0 15 -23 31 -37 26z"/>
<path d="M943 703 c-7 -3 -13 -12 -13 -21 1 -15 2 -15 11 1 12 21 29 14 29
-12 0 -10 -9 -21 -21 -24 -29 -8 -24 -62 6 -62 17 0 20 8 23 56 3 57 -6 72
-35 62z m25 -85 c-5 -32 -28 -35 -28 -4 0 17 5 26 16 26 10 0 14 -7 12 -22z"/>
<path d="M1113 703 c-9 -3 -12 -25 -11 -66 l1 -62 6 60 c4 42 10 59 19 57 8
-1 11 2 7 8 -3 5 -7 10 -8 9 -1 0 -8 -3 -14 -6z"/>
<path d="M1198 700 c19 -21 15 -50 -7 -50 -22 0 -34 -25 -26 -51 7 -20 14 -23
39 -13 23 9 22 97 -1 115 -15 11 -16 11 -5 -1z m12 -79 c0 -11 -5 -23 -11 -27
-15 -9 -33 12 -26 30 9 23 37 20 37 -3z"/>
<path d="M1263 703 c-9 -3 -12 -25 -11 -66 l1 -62 6 58 c8 74 24 78 32 7 l6
-55 1 56 c2 57 -7 72 -35 62z"/>
<path d="M631 643 c1 -41 3 -51 8 -33 l7 25 17 -30 c9 -16 16 -25 16 -20 1 6
-3 17 -9 25 -5 9 -5 19 1 27 18 21 6 58 -18 61 -22 3 -23 0 -22 -55z m39 22
c0 -16 -6 -25 -15 -25 -9 0 -15 9 -15 25 0 16 6 25 15 25 9 0 15 -9 15 -25z"/>
<path d="M872 643 c2 -43 7 -58 18 -58 8 0 15 7 16 15 0 9 -1 10 -3 3 -3 -7
-9 -13 -14 -13 -14 0 -11 98 4 103 7 3 4 6 -6 6 -16 1 -18 -6 -15 -56z"/>
<path d="M1012 648 c-2 -60 6 -73 38 -63 17 5 20 14 18 63 l-1 57 -6 -55 c-4
-40 -10 -55 -21 -55 -11 0 -17 15 -21 55 l-6 55 -1 -57z"/>
<path d="M1332 643 c2 -46 7 -59 21 -61 12 -3 17 3 16 20 -1 17 -3 18 -6 6 -2
-10 -9 -18 -14 -18 -14 0 -11 98 4 103 7 3 4 6 -6 6 -16 1 -18 -6 -15 -56z"/>
<path d="M745 600 c-4 -6 -13 -9 -21 -6 -8 3 -14 1 -14 -4 0 -13 37 -13 45 1
4 6 5 13 2 15 -3 3 -8 0 -12 -6z"/>
</g>
</svg>
